# xmcd
#
# Track frame offsets:
#	150
#	13005
#	27609
#	46087
#	59597
#	72907
#	93495
#	108493
#	122471
#	137081
#	154797
#	170524
#
# Disc length: 2482 seconds
# Revision: 0
# Processed by: cddbd v1.5.2PL0 Copyright (c) Steve Scherf et al.
# Submitted via: dBpowerAMP V12.0
#
DISCID=a209b00c
DTITLE=Vassendgutane - Riskrem and Entrekått
DYEAR=2011
DGENRE=Country
TTITLE0=E`kje den same med dame
TTITLE1=Ingvarda 80 år
TTITLE2=Love You, Geir
TTITLE3=Fonna
TTITLE4=Festival do
TTITLE5=Godt å vere rånar
TTITLE6=Et liv på telehiv
TTITLE7=Pelle oppå heida
TTITLE8=Greitt å vere neger
TTITLE9=Swingers
TTITLE10=Fisketerapi
TTITLE11=Nam nam nam
EXTD=
EXTT0=
EXTT1=
EXTT2=
EXTT3=
EXTT4=
EXTT5=
EXTT6=
EXTT7=
EXTT8=
EXTT9=
EXTT10=
EXTT11=
PLAYORDER=
